#define 95da8d9db29c429d8cde8385e3c309a0kK5PAz8xtnn0obZd_width 48
#define 95da8d9db29c429d8cde8385e3c309a0kK5PAz8xtnn0obZd_height 48
static char 95da8d9db29c429d8cde8385e3c309a0kK5PAz8xtnn0obZd_bits[] = {
  0x00, 0x00, 0x00, 0x00, 0x00, 0x00, 0x00, 0x00, 0x00, 0x00, 0x00, 0x00, 
  0x00, 0x00, 0x00, 0x00, 0x00, 0x00, 0x00, 0x00, 0x00, 0x00, 0x00, 0x00, 
  0x00, 0x00, 0x00, 0x00, 0x00, 0x00, 0x00, 0x00, 0x00, 0x00, 0xE0, 0x07, 
  0x00, 0x00, 0x00, 0x00, 0xFF, 0x07, 0x00, 0x00, 0x00, 0x80, 0xFF, 0x07, 
  0x00, 0x00, 0x00, 0xA0, 0xFF, 0x07, 0x00, 0x00, 0x00, 0x08, 0xFF, 0x07, 
  0x00, 0x00, 0x00, 0x04, 0xFF, 0x07, 0x00, 0x00, 0x00, 0x00, 0xFE, 0x03, 
  0x00, 0x00, 0x00, 0x00, 0xFE, 0x03, 0x00, 0x00, 0x80, 0x04, 0xF8, 0x03, 
  0x00, 0x00, 0x80, 0x71, 0xF8, 0x03, 0x00, 0x00, 0x20, 0xF8, 0xE0, 0x01, 
  0x00, 0x00, 0x10, 0xFC, 0x91, 0x01, 0x00, 0x00, 0xA0, 0xFD, 0x41, 0x00, 
  0x00, 0x00, 0x44, 0xFC, 0xD1, 0x00, 0x00, 0xE0, 0x1B, 0xFC, 0x05, 0x00, 
  0x00, 0xF8, 0x93, 0xF8, 0x0A, 0x00, 0x00, 0xFE, 0x27, 0x15, 0x30, 0x00, 
  0x00, 0xFF, 0xEC, 0x40, 0x02, 0x00, 0x00, 0xFF, 0xF2, 0x57, 0x1A, 0x00, 
  0x00, 0x70, 0xF4, 0x25, 0x0C, 0x00, 0x00, 0xC0, 0xF3, 0x93, 0x01, 0x00, 
  0x00, 0xC0, 0xFA, 0xA9, 0x01, 0x00, 0x00, 0x00, 0xE4, 0x96, 0x00, 0x00, 
  0x00, 0x40, 0x49, 0x22, 0x00, 0x00, 0x00, 0xE0, 0x96, 0x1C, 0x00, 0x00, 
  0x00, 0x78, 0x60, 0x15, 0x00, 0x00, 0x00, 0xF8, 0x2B, 0x1F, 0x00, 0x00, 
  0x00, 0xF8, 0xEB, 0x1F, 0x00, 0x00, 0x00, 0xFC, 0xC7, 0x1F, 0x00, 0x00, 
  0x00, 0xFD, 0x87, 0x1B, 0x00, 0x00, 0x00, 0xFE, 0x03, 0x1F, 0x00, 0x00, 
  0x00, 0xFE, 0x01, 0x1F, 0x00, 0x00, 0x80, 0x7F, 0x00, 0x0F, 0x00, 0x00, 
  0x00, 0x3D, 0x00, 0x06, 0x00, 0x00, 0x80, 0x0B, 0x00, 0x02, 0x00, 0x00, 
  0x00, 0x08, 0x00, 0x00, 0x00, 0x00, 0x40, 0x01, 0x00, 0x00, 0x00, 0x00, 
  0x00, 0x00, 0x00, 0x00, 0x00, 0x00, 0x00, 0x00, 0x00, 0x00, 0x00, 0x00, 
  0x00, 0x00, 0x00, 0x00, 0x00, 0x00, 0x00, 0x00, 0x00, 0x00, 0x00, 0x00, 
  0x00, 0x00, 0x00, 0x00, 0x00, 0x00, 0x00, 0x00, 0x00, 0x00, 0x00, 0x00, 
  };
